{"title":"The Known Universe{PSP.IPOD.ZUNE}DVDRip.aaaevilacharya","uid":6191296,"size":420982802,"categoryP":"video","categoryS":"tv_shows","magnet":"?xt=urn:btih:1f901fa25c81441f80ccffdb207c3e0282fc2093&amp;dn=The+Known+Universe%7BPSP.IPOD.ZUNE%7DDVDRip.aaaevilacharya&amp;tr=udp%3A%2F%2Ftracker.openbittorrent.com%3A80&amp;tr=udp%3A%2F%2Fopen.demonii.com%3A1337&amp;tr=udp%3A%2F%2Ftracker.coppersurfer.tk%3A6969&amp;tr=udp%3A%2F%2Fexodus.desync.com%3A6969","seeders":0,"leechers":1,"uploader":"achaevil","files":-1,"time":1298295249,"description":"General\n\nComplete name                    : National Geographic-The Known Universe-1.m4v\nFormat                           : MPEG-4\nFormat profile                   : Base Media / Version 2\nCodec ID                         : mp42\nFile size                        : 401 MiB\nDuration                         : 46mn 58s\nOverall bit rate                 : 1 195 Kbps\nEncoded date                     : UTC 2011-02-21 05:12:17\n\n\n\nVideo\nID                               : 1\nFormat                           : AVC\nFormat/Info                      : Advanced Video Codec\nFormat profile                   : &lt;a class=&quot;__cf_email__&quot; href=&quot;/cdn-cgi/l/email-protection&quot; data-cfemail=&quot;bef3dfd7d0fef28c908f&quot;&gt;[email&amp;#160;protected]&lt;/a&gt;&lt;script cf-hash='f9e31' type=&quot;text/javascript&quot;&gt;\n/* &lt;![CDATA[ */!function(){try{var t=&quot;currentScript&quot;in document?document.currentScript:function(){for(var t=document.getElementsByTagName(&quot;script&quot;),e=t.length;e--;)if(t[e].getAttribute(&quot;cf-hash&quot;))return t[e]}();if(t&amp;&amp;t.previousSibling){var e,r,n,i,c=t.previousSibling,a=c.getAttribute(&quot;data-cfemail&quot;);if(a){for(e=&quot;&quot;,r=parseInt(a.substr(0,2),16),n=2;a.length-n;n+=2)i=parseInt(a.substr(n,2),16)^r,e+=String.fromCharCode(i);e=document.createTextNode(e),c.parentNode.replaceChild(e,c)}}}catch(u){}}();/* ]]&gt; */&lt;/script&gt;\nFormat settings, CABAC           : Yes\nFormat settings, ReFrames        : 4 frames\nCodec ID                         : avc1\nCodec ID/Info                    : Advanced Video Coding\nDuration                         : 46mn 58s\nBit rate mode                    : Variable\nBit rate                         : 1 077 Kbps\nWidth                            : 480 pixels\nHeight                           : 208 pixels\nDisplay aspect ratio             : 2.35:1\nOriginal display aspect ratio    : 2.35:1\nFrame rate mode                  : Variable\nFrame rate                       : 29.970 fps\nMinimum frame rate               : 29.960 fps\nMaximum frame rate               : 77.787 fps\nColor space                      : YUV\nChroma subsampling               : 4:2:0\nBit depth                        : 8 bits\nScan type                        : Progressive\nBits/(Pixel*Frame)               : 0.277\nStream size                      : 362 MiB (90%)\n\n\n\nAudio\nID                               : 2\nFormat                           : AAC\nFormat/Info                      : Advanced Audio Codec\nFormat version                   : Version 4\nFormat profile                   : LC\nFormat settings, SBR             : No\nCodec ID                         : 40\nDuration                         : 46mn 58s\nBit rate mode                    : Variable\nBit rate                         : 112 Kbps\nMaximum bit rate                 : 154 Kbps\nChannel(s)                       : 2 channels\nChannel positions                : Front: L R\nSampling rate                    : 44.1 KHz\nStream size                      : 37.6 MiB (9%)\n\n\nscreenshots\n &lt;a href=&quot;\nhttp://img190.imageshack.us/img190/7311/nationalgeographicthekn.jpg&quot; rel=&quot;nofollow&quot; target=&quot;_NEW&quot;&gt;\nhttp://img190.imageshack.us/img190/7311/nationalgeographicthekn.jpg&lt;/a&gt; &lt;a href=&quot;\nhttp://img211.imageshack.us/img211/3908/0011648dmedium.jpg&quot; rel=&quot;nofollow&quot; target=&quot;_NEW&quot;&gt;\nhttp://img211.imageshack.us/img211/3908/0011648dmedium.jpg&lt;/a&gt; &lt;a href=&quot;\nhttp://img507.imageshack.us/img507/7311/nationalgeographicthekn.jpg&quot; rel=&quot;nofollow&quot; target=&quot;_NEW&quot;&gt;\nhttp://img507.imageshack.us/img507/7311/nationalgeographicthekn.jpg&lt;/a&gt; &lt;a href=&quot;\nhttp://img708.imageshack.us/img708/7311/nationalgeographicthekn.jpg&quot; rel=&quot;nofollow&quot; target=&quot;_NEW&quot;&gt;\nhttp://img708.imageshack.us/img708/7311/nationalgeographicthekn.jpg&lt;/a&gt; &lt;a href=&quot;\nhttp://img233.imageshack.us/img233/7311/nationalgeographicthekn.jpg&quot; rel=&quot;nofollow&quot; target=&quot;_NEW&quot;&gt;\nhttp://img233.imageshack.us/img233/7311/nationalgeographicthekn.jpg&lt;/a&gt; &lt;a href=&quot;\nhttp://img89.imageshack.us/img89/7311/nationalgeographicthekn.jpg&quot; rel=&quot;nofollow&quot; target=&quot;_NEW&quot;&gt;\nhttp://img89.imageshack.us/img89/7311/nationalgeographicthekn.jpg&lt;/a&gt; &lt;a href=&quot;\nhttp://img15.imageshack.us/img15/7311/nationalgeographicthekn.jpg&quot; rel=&quot;nofollow&quot; target=&quot;_NEW&quot;&gt;\nhttp://img15.imageshack.us/img15/7311/nationalgeographicthekn.jpg&lt;/a&gt; &lt;a href=&quot;\nhttp://img24.imageshack.us/img24/7311/nationalgeographicthekn.jpg&quot; rel=&quot;nofollow&quot; target=&quot;_NEW&quot;&gt;\nhttp://img24.imageshack.us/img24/7311/nationalgeographicthekn.jpg&lt;/a&gt; &lt;a href=&quot;\nhttp://img507.imageshack.us/img507/7645/nationalgeographictheknb.jpg&quot; rel=&quot;nofollow&quot; target=&quot;_NEW&quot;&gt;\nhttp://img507.imageshack.us/img507/7645/nationalgeographictheknb.jpg&lt;/a&gt; &lt;a href=&quot;\nhttp://img52.imageshack.us/img52/7311/nationalgeographicthekn.jpg&quot; rel=&quot;nofollow&quot; target=&quot;_NEW&quot;&gt;\nhttp://img52.imageshack.us/img52/7311/nationalgeographicthekn.jpg&lt;/a&gt;\n\n\n","torrent":{"xt":"urn:btih:1f901fa25c81441f80ccffdb207c3e0282fc2093","amp;dn":"The+Known+Universe%7BPSP.IPOD.ZUNE%7DDVDRip.aaaevilacharya","amp;tr":["udp%3A%2F%2Ftracker.openbittorrent.com%3A80","udp%3A%2F%2Fopen.demonii.com%3A1337","udp%3A%2F%2Ftracker.coppersurfer.tk%3A6969","udp%3A%2F%2Fexodus.desync.com%3A6969"],"infoHash":"1f901fa25c81441f80ccffdb207c3e0282fc2093","infoHashBuffer":{"type":"Buffer","data":[31,144,31,162,92,129,68,31,128,204,255,219,32,124,62,2,130,252,32,147]},"announce":[],"urlList":[]}}